<svg xmlns="http://www.w3.org/2000/svg" width="50" height="40"><path fill="#000" stroke="#000" stroke-width="1.5" d="M24.273 6.512c-1.634.075-3.34.511-4.887 1.253-.409.193-.774.355-.806.355-.092.005-1.652 1.065-2.087 1.426-.5.414-1.538 1.452-1.952 1.951-.36.436-1.42 1.995-1.426 2.086 0 .033-.16.399-.354.807-.63 1.323-1.005 2.62-1.205 4.2-.075.554-.075 2.248 0 2.85a13.799 13.799 0 0 0 1.205 4.178c.193.41.355.775.355.807.005.092 1.065 1.651 1.425 2.086.398.484 1.435 1.522 1.936 1.942.398.333 2.016 1.436 2.107 1.436.032 0 .393.162.802.355 1.322.629 2.619 1.005 4.2 1.205.554.074 2.247.074 2.85 0a13.799 13.799 0 0 0 4.178-1.205c.409-.193.77-.355.8-.355.093 0 1.712-1.103 2.11-1.436a23.475 23.475 0 0 0 1.925-1.925c.333-.398 1.435-2.016 1.435-2.108 0-.033.162-.392.355-.8a13.778 13.778 0 0 0 1.205-4.18c.075-.602.075-2.296 0-2.85-.2-1.58-.576-2.877-1.205-4.2-.193-.408-.355-.769-.355-.8 0-.092-1.102-1.711-1.435-2.109-.42-.5-1.457-1.538-1.941-1.936-.436-.36-1.997-1.42-2.088-1.425-.032 0-.397-.161-.806-.355-1.99-.951-4.06-1.36-6.34-1.253zm2.447 1.103c1.2.172 2.264.478 3.388.984 2.63 1.172 4.825 3.28 6.078 5.84.634 1.3 1.01 2.495 1.21 3.871.128.861.128 2.56 0 3.388-.33 2.162-1.114 4.082-2.351 5.755-.564.763-1.834 2.033-2.597 2.597-1.673 1.236-3.592 2.022-5.754 2.35-.828.128-2.527.128-3.388 0-4.312-.63-7.964-3.372-9.711-7.287a12.382 12.382 0 0 1-.99-3.415c-.13-.828-.13-2.527 0-3.388a12.603 12.603 0 0 1 4.437-7.942c1.936-1.619 4.496-2.651 7.018-2.84.888-.05 1.779-.02 2.662.087h-.002z"/><path fill="#000" d="M19.51 10.922c-.269.193-1.017.951-1.017 1.027 0 .032.333.398.736.818 1.593 1.64 1.921 2.08 1.98 2.612.08.727.16.937.565 1.496.3.42.403.7.478 1.285.172 1.355.215 6.593.059 7.007-.037.102-.188.333-.333.511a4.033 4.033 0 0 0-.408.618c-.13.258-.146.36-.146.807 0 .478.01.532.183.844.23.43.662.839 1.108 1.043.338.162.365.167 1.005.145.792-.021 1-.101 1.533-.597.45-.424.661-.838.661-1.317 0-.537-.128-.92-.436-1.285-.42-.506-.527-.715-.586-1.15-.14-1.001-.107-6.008.044-6.712l.036-.183.7.694c.802.79 1.479 1.607 1.64 1.974.06.134.135.45.166.693.114.952.151 1.14.291 1.425.184.365.673.871 1.001 1.027.204.097.338.118.8.118.667 0 .872-.08 1.383-.559.603-.56.903-1.242.866-1.99-.028-.565-.237-1.016-.667-1.446-.36-.36-.747-.57-1.393-.763a4.493 4.493 0 0 1-.672-.258c-.307-.184-1.07-.861-1.543-1.377-.98-1.06-1.329-1.576-1.382-2.044-.054-.489-.382-1.102-.786-1.473-.446-.414-.86-.603-1.608-.731-.752-.135-1.005-.253-1.672-.823-1.388-1.167-1.99-1.602-2.231-1.602-.065 0-.226.074-.355.165v.001z"/></svg>